HIERARCHY
ROOT hip
{
  OFFSET 0 0 0
  CHANNELS 6 Xposition Yposition Zposition Zrotation Yrotation Xrotation
  JOINT abdomen
  {
    OFFSET 0 20.6881 -0.73152
    CHANNELS 3 Zrotation Xrotation Yrotation
    JOINT chest
    {
      OFFSET 0 11.7043 -0.48768
      CHANNELS 3 Zrotation Xrotation Yrotation
      JOINT neck
      {
        OFFSET 0 22.1894 -2.19456
        CHANNELS 3 Zrotation Xrotation Yrotation
        JOINT head
        {
          OFFSET -0.24384 7.07133 1.2192
          CHANNELS 3 Zrotation Xrotation Yrotation
          JOINT leftEye
          {
            OFFSET 4.14528 8.04674 8.04672
            CHANNELS 3 Zrotation Xrotation Yrotation
            End Site
            {
              OFFSET 1 0 0
            }
          }
          JOINT rightEye
          {
            OFFSET -3.6576 8.04674 8.04672
            CHANNELS 3 Zrotation Xrotation Yrotation
            End Site
            {
              OFFSET 1 0 0
            }
          }
        }
      }
      JOINT rCollar
      {
        OFFSET -2.68224 19.2634 -4.8768
        CHANNELS 3 Zrotation Xrotation Yrotation
        JOINT rShldr
        {
          OFFSET -8.77824 -1.95073 1.46304
          CHANNELS 3 Zrotation Xrotation Yrotation
          JOINT rForeArm
          {
            OFFSET -28.1742 -1.7115 0.48768
            CHANNELS 3 Zrotation Xrotation Yrotation
            JOINT rHand
            {
              OFFSET -22.5879 0.773209 7.07136
              CHANNELS 3 Zrotation Xrotation Yrotation
              JOINT rThumb1
              {
                OFFSET -1.2192 -0.487915 3.41376
                CHANNELS 3 Zrotation Xrotation Yrotation
                JOINT rThumb2
                {
                  OFFSET -3.37035 -0.52449 3.41376
                  CHANNELS 3 Zrotation Xrotation Yrotation
                  End Site
                  {
                    OFFSET -1.78271 -1.18214 1.43049
                  }
                }
              }
              JOINT rIndex1
              {
                OFFSET -7.75947 0.938293 5.60832
                CHANNELS 3 Zrotation Xrotation Yrotation
                JOINT rIndex2
                {
                  OFFSET -2.54057 -0.884171 1.56538
                  CHANNELS 3 Zrotation Xrotation Yrotation
                  End Site
                  {
                    OFFSET -1.62519 -0.234802 1.16502
                  }
                }
              }
              JOINT rMid1
              {
                OFFSET -8.24714 1.18213 3.41376
                CHANNELS 3 Zrotation Xrotation Yrotation
                JOINT rMid2
                {
                  OFFSET -3.10165 -0.590103 1.0647
                  CHANNELS 3 Zrotation Xrotation Yrotation
                  End Site
                  {
                    OFFSET -2.48547 -0.328903 0.83742
                  }
                }
              }
              JOINT rRing1
              {
                OFFSET -8.82822 0.546677 1.51678
                CHANNELS 3 Zrotation Xrotation Yrotation
                JOINT rRing2
                {
                  OFFSET -2.60934 -0.819778 -0.0198488
                  CHANNELS 3 Zrotation Xrotation Yrotation
                  End Site
                  {
                    OFFSET -2.33842 -0.294052 0.168128
                  }
                }
              }
              JOINT rPinky1
              {
                OFFSET -8.27202 -0.0477905 -0.4584
                CHANNELS 3 Zrotation Xrotation Yrotation
                JOINT rPinky2
                {
                  OFFSET -1.82734 -0.647385 -0.700984
                  CHANNELS 3 Zrotation Xrotation Yrotation
                  End Site
                  {
                    OFFSET -1.69225 -0.51767 -0.607171
                  }
                }
              }
            }
          }
        }
      }
      JOINT lCollar
      {
        OFFSET 2.68224 19.2634 -4.8768
        CHANNELS 3 Zrotation Xrotation Yrotation
        JOINT lShldr
        {
          OFFSET 8.77824 -1.95073 1.46304
          CHANNELS 3 Zrotation Xrotation Yrotation
          JOINT lForeArm
          {
            OFFSET 28.1742 -1.7115 0.48768
            CHANNELS 3 Zrotation Xrotation Yrotation
            JOINT lHand
            {
              OFFSET 22.5879 0.773209 7.07136
              CHANNELS 3 Zrotation Xrotation Yrotation
              JOINT lThumb1
              {
                OFFSET 1.2192 -0.487915 3.41376
                CHANNELS 3 Zrotation Xrotation Yrotation
                JOINT lThumb2
                {
                  OFFSET 3.37035 -0.52449 3.41376
                  CHANNELS 3 Zrotation Xrotation Yrotation
                  End Site
                  {
                    OFFSET 1.78271 -1.18214 1.43049
                  }
                }
              }
              JOINT lIndex1
              {
                OFFSET 7.75947 0.938293 5.60832
                CHANNELS 3 Zrotation Xrotation Yrotation
                JOINT lIndex2
                {
                  OFFSET 2.54057 -0.884171 1.56538
                  CHANNELS 3 Zrotation Xrotation Yrotation
                  End Site
                  {
                    OFFSET 1.62519 -0.234802 1.16502
                  }
                }
              }
              JOINT lMid1
              {
                OFFSET 8.24714 1.18213 3.41376
                CHANNELS 3 Zrotation Xrotation Yrotation
                JOINT lMid2
                {
                  OFFSET 3.10165 -0.590103 1.0647
                  CHANNELS 3 Zrotation Xrotation Yrotation
                  End Site
                  {
                    OFFSET 2.48547 -0.328903 0.83742
                  }
                }
              }
              JOINT lRing1
              {
                OFFSET 8.82822 0.546677 1.51678
                CHANNELS 3 Zrotation Xrotation Yrotation
                JOINT lRing2
                {
                  OFFSET 2.60934 -0.819778 -0.0198488
                  CHANNELS 3 Zrotation Xrotation Yrotation
                  End Site
                  {
                    OFFSET 2.33842 -0.294052 0.168128
                  }
                }
              }
              JOINT lPinky1
              {
                OFFSET 8.27202 -0.0477905 -0.4584
                CHANNELS 3 Zrotation Xrotation Yrotation
                JOINT lPinky2
                {
                  OFFSET 1.82734 -0.647385 -0.700984
                  CHANNELS 3 Zrotation Xrotation Yrotation
                  End Site
                  {
                    OFFSET 1.69225 -0.51767 -0.607171
                  }
                }
              }
            }
          }
        }
      }
    }
  }
  JOINT rButtock
  {
    OFFSET -8.77824 4.35084 1.2192
    CHANNELS 3 Zrotation Xrotation Yrotation
    JOINT rThigh
    {
      OFFSET 0 -1.70687 -2.19456
      CHANNELS 3 Zrotation Xrotation Yrotation
      JOINT rShin
      {
        OFFSET 0 -36.8199 0.73152
        CHANNELS 3 Zrotation Xrotation Yrotation
        JOINT rFoot
        {
          OFFSET 0.73152 -45.1104 -5.12064
          CHANNELS 3 Zrotation Xrotation Yrotation
          End Site
          {
            OFFSET -1.1221 -3.69964 12.103
          }
        }
      }
    }
  }
  JOINT lButtock
  {
    OFFSET 8.77824 4.35084 1.2192
    CHANNELS 3 Zrotation Xrotation Yrotation
    JOINT lThigh
    {
      OFFSET 0 -1.70687 -2.19456
      CHANNELS 3 Zrotation Xrotation Yrotation
      JOINT lShin
      {
        OFFSET 0 -36.8199 0.73152
        CHANNELS 3 Zrotation Xrotation Yrotation
        JOINT lFoot
        {
          OFFSET -0.73152 -45.1104 -5.12064
          CHANNELS 3 Zrotation Xrotation Yrotation
          End Site
          {
            OFFSET 1.1221 -3.69964 12.103
          }
        }
      }
    }
  }
}
MOTION
Frames:	4
Frame Time:	0.03333
-6.518752779811621 -11.788050830364227 -1.5561462379992008 2.078547954559326 19.821386337280273 -7.869959354400635 -10.740288734436035 16.48529052734375 4.563637733459473 4.791112422943115 -14.469889640808105 1.4060864448547363 -8.34351921081543 18.828542709350586 -12.335830688476562 11.777478218078613 -14.690481185913086 -23.724376678466797 0.347343385219574 0.49899956583976746 -0.07252614200115204 -0.32640430331230164 0.11565578728914261 0.12688623368740082 0.15288816392421722 -0.10412397980690002 0.09133321046829224 29.379602432250977 7.526978015899658 84.3366470336914 -28.092992782592773 -37.26591491699219 79.01482391357422 -4.404719829559326 -50.510650634765625 -9.5046968460083 -0.40669456124305725 -0.15207351744174957 0.15859760344028473 0.4727630019187927 0.13540534675121307 -0.6893541216850281 0.1161908358335495 -0.16376791894435883 0.17804759740829468 7.992715835571289 5.178475379943848 0.042717739939689636 -0.244132399559021 0.25498098134994507 -0.24525503814220428 2.2525880336761475 0.41038358211517334 0.01343847531825304 0.47935396432876587 -0.4065985381603241 -0.15950003266334534 10.070940971374512 1.4230536222457886 -0.22772714495658875 -0.21059514582157135 -0.34931671619415283 0.020596211776137352 2.428682327270508 -1.2951180934906006 -0.18768444657325745 -0.03027406893670559 -0.0532706119120121 -0.281900554895401 -30.622983932495117 52.305877685546875 -83.33859252929688 28.23621368408203 -38.71125411987305 -80.66831970214844 0.18540339171886444 5.983227252960205 -0.6330466866493225 0.26022374629974365 -0.20375539362430573 0.015718981623649597 0.3993483781814575 -0.48749932646751404 0.06481212377548218 -0.5094730257987976 -0.3262026906013489 0.13687576353549957 -7.48452615737915 5.070024013519287 -0.25491195917129517 0.1768316775560379 -0.3978014588356018 0.10288536548614502 -3.2678794860839844 0.560228705406189 -0.09597298502922058 -0.23975738883018494 0.10289906710386276 -0.03439828380942345 -10.074673652648926 0.92704838514328 0.09643310308456421 -0.49970951676368713 0.17939205467700958 -0.44577696919441223 -2.190568208694458 -0.972038745880127 0.4358530640602112 -0.3700651228427887 0.22201497852802277 0.19693192839622498 -119.82930755615234 -56.56425094604492 -127.04424285888672 -177.6134796142578 35.91360092163086 -175.7100830078125 -17.30429458618164 51.91849136352539 37.06272888183594 0.17861568927764893 0.042030636221170425 -0.23459425568580627 -6.648616790771484 -21.98406982421875 12.520137786865234 1.4456239938735962 54.6242561340332 -2.9419946670532227 3.771550416946411 -20.788738250732422 4.304390907287598
-6.676200870424509 -11.71681061387062 -1.6125377267599106 2.940833806991577 20.779708862304688 -7.125049114227295 -10.781578063964844 16.877845764160156 3.714503765106201 5.185319900512695 -14.577890396118164 1.148835301399231 -8.329866409301758 18.970844268798828 -12.024225234985352 11.417569160461426 -15.709944725036621 -22.79342269897461 0.4969528019428253 0.4675522446632385 -0.09011934697628021 -0.604907751083374 -0.007091920357197523 0.18670393526554108 0.29942402243614197 -0.12225789576768875 0.1376657336950302 29.95551109313965 7.767721176147461 83.87905883789062 -28.246461868286133 -37.9071044921875 79.78693389892578 -3.781120777130127 -48.597591400146484 -8.692817687988281 -0.7065304517745972 -0.18177174031734467 0.09845989942550659 0.5821326971054077 0.1814497709274292 -0.8038731217384338 0.03290443494915962 -0.1682673990726471 0.1766069382429123 8.078598022460938 5.2636799812316895 -0.027637599036097527 -0.19194482266902924 0.15431994199752808 -0.23779073357582092 2.4711475372314453 0.3264717757701874 -0.022538598626852036 0.41407883167266846 -0.5098949074745178 0.048219162970781326 10.271491050720215 1.2165567874908447 -0.286908358335495 -0.2055593878030777 -0.4158746302127838 0.053939901292324066 2.3265058994293213 -1.5424163341522217 -0.1978619396686554 -0.05886340141296387 -0.2135421186685562 -0.3433913290500641 -30.91230010986328 52.45038604736328 -82.72286224365234 28.71131706237793 -38.7487678527832 -80.42479705810547 0.11063919216394424 5.934031963348389 -0.557796061038971 0.2725105583667755 -0.06405753642320633 -0.07719635218381882 0.44644492864608765 -0.3075893521308899 -0.044115908443927765 -0.4338217079639435 -0.32547304034233093 0.04355144873261452 -7.525949478149414 5.063154697418213 -0.5493714809417725 0.2956636846065521 -0.2386346012353897 0.1307663768529892 -3.308483123779297 0.7272933125495911 -0.18519940972328186 -0.2915215492248535 -0.04078473895788193 0.0005750437849201262 -10.06019401550293 0.9222083687782288 0.18509991466999054 -0.5404393076896667 0.2924470901489258 -0.48975110054016113 -2.081468105316162 -1.0078543424606323 0.24483126401901245 -0.27967318892478943 0.18494795262813568 0.3494764566421509 -121.64550018310547 -56.84746170043945 -129.31747436523438 -177.5424346923828 35.91728591918945 -175.83441162109375 -17.10961151123047 52.00557327270508 36.50010681152344 0.18747122585773468 0.12535901367664337 -0.44483739137649536 -6.034010410308838 -21.92307472229004 13.194319725036621 1.4099929332733154 55.83919143676758 -3.013451337814331 4.162065505981445 -21.72454261779785 4.797203540802002
-6.828924175351858 -11.799272149801254 -1.700400747358799 3.502441883087158 21.045846939086914 -7.241199016571045 -10.796975135803223 16.48183250427246 3.0228464603424072 5.172132968902588 -14.881121635437012 1.2203227281570435 -8.836194038391113 19.384817123413086 -12.241839408874512 11.568583488464355 -15.819414138793945 -22.38162612915039 0.583587646484375 0.2349560409784317 -0.133022740483284 -0.7344029545783997 0.049593236297369 -0.1022346168756485 0.2813766598701477 0.12064230442047119 0.08185207843780518 29.990846633911133 9.076563835144043 84.862060546875 -28.217744827270508 -37.811832427978516 79.72822570800781 -3.3833420276641846 -47.17774200439453 -7.998485088348389 -0.8376495242118835 -0.03237396851181984 0.0915755182504654 0.3542710542678833 0.47898629307746887 -0.5256879329681396 -0.33520370721817017 0.05244754999876022 0.09369418025016785 7.914901256561279 5.626270294189453 0.022838935256004333 -0.20273829996585846 0.14244936406612396 -0.3154970407485962 2.4643328189849854 0.09344891458749771 0.13795384764671326 0.5457342863082886 -0.4062229096889496 0.043977122753858566 10.356857299804688 1.2055031061172485 -0.18184883892536163 -0.2802637815475464 0.11997834593057632 -0.026437828317284584 2.1833083629608154 -1.1615512371063232 -0.022340398281812668 0.07455722987651825 -0.38412049412727356 -0.6229357719421387 -31.033458709716797 53.76688766479492 -83.92109680175781 28.775588989257812 -38.92378234863281 -80.70892333984375 0.2543632984161377 6.996098041534424 -1.0495994091033936 0.18413925170898438 0.032264791429042816 -0.2767154574394226 0.16649100184440613 -0.13103526830673218 -0.0891796350479126 -0.29111671447753906 -0.7259653210639954 -0.23523783683776855 -7.82697868347168 5.0873122215271 -0.536645770072937 0.15069495141506195 0.14144879579544067 0.04516175016760826 -3.3189477920532227 0.9078439474105835 -0.08254486322402954 -0.18161924183368683 0.03367892652750015 -0.10224777460098267 -10.243273735046387 1.1310762166976929 0.20563538372516632 -0.23184660077095032 0.20079255104064941 -0.34499916434288025 -2.0414326190948486 -0.9415491819381714 0.3180345296859741 0.0031671468168497086 0.27383026480674744 0.3086473345756531 -122.89167785644531 -59.14554214477539 -131.2649383544922 -177.40457153320312 36.096900939941406 -176.4277801513672 -17.0070743560791 52.90037155151367 34.782379150390625 0.1735013723373413 0.3553512394428253 -0.41847991943359375 -6.626023292541504 -22.145645141601562 12.996386528015137 0.789964497089386 55.854068756103516 -3.197263717651367 4.559826374053955 -21.592937469482422 5.088595867156982
-6.953941565006971 -11.839093267917633 -1.782152708619833 2.84017014503479 21.298847198486328 -7.780322074890137 -10.918102264404297 16.38161277770996 2.1440083980560303 5.554855823516846 -15.048436164855957 1.2956563234329224 -8.894229888916016 19.750865936279297 -12.026595115661621 11.10963249206543 -16.714296340942383 -21.63336181640625 0.5548492074012756 0.0515737347304821 -0.12350685149431229 -0.7837233543395996 -0.12421337515115738 -0.09915006160736084 0.22810138761997223 0.11480925977230072 -0.0946820080280304 30.154050827026367 7.7073235511779785 84.74003601074219 -28.224857330322266 -38.3172721862793 80.79548645019531 -3.2593696117401123 -47.28994369506836 -7.913645267486572 -0.7789872288703918 -0.09884121268987656 -0.036042388528585434 0.18272481858730316 0.6073809862136841 -0.39001092314720154 -0.3720153272151947 0.2871960401535034 0.0049629793502390385 7.83024263381958 5.812417030334473 0.327316552400589 -0.2546989321708679 -0.0030519464053213596 -0.249092236161232 2.485882043838501 0.30854329466819763 0.3091403543949127 0.5978479981422424 -0.263753741979599 0.10812754184007645 10.359833717346191 1.0820236206054688 -0.11030235886573792 -0.3377286195755005 0.29391998052597046 -0.17991967499256134 2.027730703353882 -0.9823136925697327 0.10839904844760895 0.18922489881515503 -0.5755344033241272 -0.9599698185920715 -30.913257598876953 52.93904113769531 -84.43888092041016 28.963247299194336 -39.19102096557617 -81.2811279296875 0.1837732344865799 6.027337551116943 -0.9379320740699768 0.2771610617637634 -0.0263387318700552 -0.385746568441391 0.13283102214336395 0.07309555262327194 -0.06053826957941055 0.012467386201024055 -0.7660398483276367 -0.4330280125141144 -7.82208251953125 5.123057842254639 -0.6391605734825134 0.09884955734014511 0.31356045603752136 -0.05914453789591789 -3.2037200927734375 1.023510456085205 -0.1627824604511261 -0.1389782428741455 0.14615404605865479 -0.3157467842102051 -10.317599296569824 1.1521940231323242 0.10904941707849503 0.007240122649818659 0.2452835738658905 -0.09378867596387863 -2.205974578857422 -0.6793952584266663 0.3518449366092682 0.10342777520418167 0.42396706342697144 0.38355088233947754 -125.577880859375 -59.58003616333008 -134.7584228515625 -177.42745971679688 35.660072326660156 -176.74392700195312 -16.41352653503418 53.77555465698242 32.712100982666016 0.15161332488059998 0.33161163330078125 -0.4972282946109772 -6.899817943572998 -22.052745819091797 12.848577499389648 0.25149276852607727 55.85901641845703 -3.231452465057373 4.74774694442749 -22.152124404907227 5.452425956726074
